<svg width="20" height="20" viewBox="0 0 20 20" fill="none" xmlns="http://www.w3.org/2000/svg">
<path fill-rule="evenodd" clip-rule="evenodd" d="M14.6982 5.92504V5.92504C14.3873 5.92504 14.1057 5.74587 13.9732 5.46587C13.734 4.9592 13.4298 4.3117 13.2498 3.9592C12.984 3.43504 12.5532 3.13004 11.9565 3.12587C11.9465 3.12504 8.05317 3.12504 8.04317 3.12587C7.4465 3.13004 7.0165 3.43504 6.74984 3.9592C6.57067 4.3117 6.2665 4.9592 6.02734 5.46587C5.89484 5.74587 5.61234 5.92504 5.30234 5.92504V5.92504C3.639 5.92504 2.2915 7.27254 2.2915 8.93504V13.8817C2.2915 15.5434 3.639 16.8917 5.30234 16.8917H14.6982C16.3607 16.8917 17.7082 15.5434 17.7082 13.8817V8.93504C17.7082 7.27254 16.3607 5.92504 14.6982 5.92504Z" stroke="#333333" stroke-width="1.5" stroke-linecap="round" stroke-linejoin="round"/>
<path fill-rule="evenodd" clip-rule="evenodd" d="M7.35116 11.1121C7.35033 12.5729 8.54283 13.7679 10.0012 13.7671C11.457 13.7654 12.6462 12.5754 12.6487 11.118C12.6512 9.65462 11.4628 8.46212 10.0028 8.46045C8.53449 8.45878 7.33949 9.67128 7.35116 11.1121Z" stroke="#333333" stroke-width="1.5" stroke-linecap="round" stroke-linejoin="round"/>
<path d="M14.0856 9.16257C14.0051 9.15431 13.9256 9.1333 13.8365 9.09745C13.7374 9.05344 13.6517 8.99746 13.5687 8.91321C13.4198 8.75475 13.3335 8.54752 13.3335 8.33374C13.3335 8.22018 13.3567 8.10763 13.4021 8.00567C13.4475 7.90238 13.5013 7.81524 13.5986 7.72046C13.6727 7.65599 13.7485 7.60411 13.8522 7.55844C14.1596 7.43663 14.5252 7.50941 14.7538 7.73784C14.8223 7.80532 14.8799 7.88675 14.912 7.95543L14.9309 8.00412C14.9769 8.10763 15.0002 8.22018 15.0002 8.33374C15.0002 8.55185 14.915 8.75357 14.7569 8.92147C14.6203 9.059 14.4409 9.14358 14.2495 9.16258L14.1668 9.16667L14.0856 9.16257Z" fill="#333333"/>
</svg>
