<svg width="21" height="21" viewBox="0 0 21 21" fill="none" xmlns="http://www.w3.org/2000/svg">
<path fill-rule="evenodd" clip-rule="evenodd" d="M6.91277 11.4053C6.37547 11.4053 5.93896 10.9688 5.93896 10.4315C5.93896 9.8958 6.37547 9.45929 6.91277 9.45929C7.45008 9.45929 7.88658 9.8958 7.88658 10.4315C7.88658 10.9688 7.45008 11.4053 6.91277 11.4053ZM10.6985 11.4053C10.1612 11.4053 9.72466 10.9688 9.72466 10.4315C9.72466 9.8958 10.1612 9.45929 10.6985 9.45929C11.2358 9.45929 11.6723 9.8958 11.6723 10.4315C11.6723 10.9688 11.2358 11.4053 10.6985 11.4053ZM13.5105 10.4315C13.5105 10.9688 13.947 11.4053 14.4843 11.4053C15.0216 11.4053 15.4581 10.9688 15.4581 10.4315C15.4581 9.8958 15.0216 9.45929 14.4843 9.45929C13.947 9.45929 13.5105 9.8958 13.5105 10.4315Z" fill="url(#paint0_linear_201_1296)"/>
<path fill-rule="evenodd" clip-rule="evenodd" d="M10.5167 1.91296C5.67508 1.91296 2.16675 5.86806 2.16675 10.2588C2.16675 11.6609 2.57508 13.1039 3.29175 14.4226C3.42508 14.6404 3.44175 14.915 3.35008 15.1745L2.79175 17.044C2.66675 17.4947 3.05008 17.8277 3.47508 17.6941L5.15841 17.1942C5.61675 17.044 5.97508 17.2351 6.40008 17.4947C7.61675 18.2116 9.13342 18.5796 10.5001 18.5796C14.6334 18.5796 18.8334 15.3832 18.8334 10.2338C18.8334 5.79295 15.2501 1.91296 10.5167 1.91296Z" stroke="url(#paint1_linear_201_1296)" stroke-width="1.5" stroke-linecap="round" stroke-linejoin="round"/>
<defs>
<linearGradient id="paint0_linear_201_1296" x1="15.4581" y1="11.4053" x2="5.8444" y2="10.6262" gradientUnits="userSpaceOnUse">
<stop stop-color="#888BF4"/>
<stop offset="1" stop-color="#5151C6"/>
</linearGradient>
<linearGradient id="paint1_linear_201_1296" x1="18.8334" y1="18.5796" x2="1.89527" y2="18.299" gradientUnits="userSpaceOnUse">
<stop stop-color="#888BF4"/>
<stop offset="1" stop-color="#5151C6"/>
</linearGradient>
</defs>
</svg>
