<svg width="21" height="21" viewBox="0 0 21 21" fill="none" xmlns="http://www.w3.org/2000/svg">
<path d="M17.2663 4.48398C16.8753 4.09159 16.4111 3.78032 15.9002 3.56795C15.3893 3.35558 14.8417 3.24628 14.2887 3.24628C13.7357 3.24628 13.1881 3.35558 12.6772 3.56795C12.1663 3.78032 11.7021 4.09159 11.3112 4.48398L10.4998 5.29794L9.68843 4.48398C8.89874 3.69175 7.82768 3.24669 6.71089 3.24669C5.59409 3.24669 4.52303 3.69175 3.73334 4.48398C2.94365 5.2762 2.5 6.35069 2.5 7.47106C2.5 8.59144 2.94365 9.66592 3.73334 10.4581L4.5447 11.2721L10.4998 17.2463L16.4549 11.2721L17.2663 10.4581C17.6574 10.0659 17.9677 9.60027 18.1794 9.08774C18.391 8.57521 18.5 8.02585 18.5 7.47106C18.5 6.91627 18.391 6.36692 18.1794 5.85439C17.9677 5.34185 17.6574 4.87618 17.2663 4.48398V4.48398Z" stroke="url(#paint0_linear_201_1305)" stroke-width="1.5" stroke-linecap="round" stroke-linejoin="round"/>
<defs>
<linearGradient id="paint0_linear_201_1305" x1="18.5" y1="17.2463" x2="2.24075" y2="16.9384" gradientUnits="userSpaceOnUse">
<stop stop-color="#888BF4"/>
<stop offset="1" stop-color="#5151C6"/>
</linearGradient>
</defs>
</svg>
