<svg width="100" height="34" viewBox="0 0 100 34" fill="none" xmlns="http://www.w3.org/2000/svg">
<path d="M5.22996 7.27292C4.16762 7.27292 3.30958 6.95966 2.65584 6.33316C2.00209 5.70665 1.67522 4.90309 1.67522 3.92247C1.67522 2.77842 2.02933 1.83866 2.73756 1.1032C3.47302 0.367733 4.45364 0 5.67941 0C6.90518 0 7.84494 0.313253 8.49868 0.939761C9.15243 1.56627 9.4793 2.36983 9.4793 3.35045C9.4793 4.52174 9.11157 5.47512 8.37611 6.21058C7.64064 6.91881 6.60555 7.27292 5.27082 7.27292H5.22996ZM2.73756 15.077L0 14.3007V11.2362L8.17181 10.2556H8.25353L9.52016 11.1137V30.44L11.9717 30.8077V33.5044H0.204295V30.8077L2.73756 30.44V15.077ZM17.4568 33.7659C16.7159 33.7659 16.0621 33.5044 15.4956 32.9814C14.9508 32.4585 14.6784 31.8156 14.6784 31.0529C14.6784 30.1812 14.9943 29.473 15.6263 28.9282C16.2583 28.3616 17.0428 28.0784 17.9798 28.0784C18.8297 28.0784 19.5161 28.3508 20.0391 28.8955C20.5621 29.4403 20.8236 30.0832 20.8236 30.8241C20.8236 31.7393 20.5185 32.4585 19.9083 32.9814C19.2982 33.5044 18.481 33.7659 17.4568 33.7659ZM23.5219 24.5481C23.5219 22.6087 23.9142 20.909 24.6987 19.4489C25.4831 17.9889 26.5836 16.8666 28.0001 16.0821C29.4165 15.2758 31.0509 14.8727 32.9032 14.8727C33.8184 14.8727 34.6029 14.9381 35.2566 15.0688C35.9322 15.1778 36.6186 15.3412 37.3159 15.5591C37.9479 15.7335 38.3401 15.8315 38.4927 15.8533L38.2639 21.7697H34.9625L34.1126 18.0107C34.0472 17.7274 33.862 17.5313 33.5569 17.4223C33.2736 17.2916 32.9249 17.2262 32.5109 17.2262C31.4867 17.2262 30.6804 17.7274 30.092 18.7298C29.5255 19.7322 29.2422 21.3993 29.2422 23.731C29.2422 25.9537 29.6017 27.6643 30.3209 28.8629C31.0618 30.0396 32.0533 30.628 33.2954 30.628C34.908 30.628 36.3898 30.2139 37.7409 29.3858L38.6234 31.3144C38.1004 31.9028 37.2397 32.4802 36.0411 33.0468C34.8426 33.5916 33.5133 33.864 32.0533 33.864C29.1986 33.864 27.063 33.025 25.6466 31.3471C24.2301 29.6473 23.5219 27.381 23.5219 24.5481ZM42.3641 9.90424L40.076 9.47931V7.48538L46.6134 6.70089H46.7115L47.6594 7.38732V31.0529L49.7841 31.3471V33.5044H40.2721V31.3471L42.3641 31.0529V9.90424ZM55.5616 12.5192C54.7117 12.5192 54.0252 12.2686 53.5023 11.7674C52.9793 11.2662 52.7178 10.6234 52.7178 9.83887C52.7178 8.92362 53.001 8.17182 53.5676 7.58345C54.156 6.99508 54.9405 6.70089 55.9211 6.70089C56.9017 6.70089 57.6535 6.95149 58.1765 7.4527C58.6995 7.9539 58.961 8.59675 58.961 9.38125C58.961 10.3183 58.6668 11.081 58.0785 11.6694C57.4901 12.2359 56.662 12.5192 55.5942 12.5192H55.5616ZM53.5676 18.7625L51.3776 18.1414V15.6899L57.915 14.9054H57.9804L58.9937 15.5918V31.0529L60.9549 31.3471V33.5044H51.541V31.3471L53.5676 31.0529V18.7625ZM62.5385 24.5481C62.5385 22.6087 62.9308 20.909 63.7152 19.4489C64.4997 17.9889 65.6002 16.8666 67.0167 16.0821C68.4331 15.2758 70.0675 14.8727 71.9197 14.8727C72.835 14.8727 73.6195 14.9381 74.2732 15.0688C74.9488 15.1778 75.6352 15.3412 76.3325 15.5591C76.9645 15.7335 77.3567 15.8315 77.5093 15.8533L77.2805 21.7697H73.979L73.1292 18.0107C73.0638 17.7274 72.8786 17.5313 72.5735 17.4223C72.2902 17.2916 71.9415 17.2262 71.5275 17.2262C70.5033 17.2262 69.697 17.7274 69.1087 18.7298C68.5421 19.7322 68.2588 21.3993 68.2588 23.731C68.2588 25.9537 68.6183 27.6643 69.3375 28.8629C70.0784 30.0396 71.0699 30.628 72.312 30.628C73.9246 30.628 75.4064 30.2139 76.7575 29.3858L77.64 31.3144C77.117 31.9028 76.2563 32.4802 75.0577 33.0468C73.8592 33.5916 72.5299 33.864 71.0699 33.864C68.2152 33.864 66.0796 33.025 64.6632 31.3471C63.2467 29.6473 62.5385 27.381 62.5385 24.5481ZM81.1519 9.90424L78.9291 9.47931V7.48538L85.4339 6.70089H85.5319L86.4799 7.38732V22.6523L86.3818 24.254L92.527 17.7819L90.1082 17.4223V15.363H98.9991V17.4223L96.3187 17.8472L92.7885 21.214L98.1819 31.0529L99.8817 31.3471V33.5044H90.7946V31.3471L92.2655 31.0529L89.0295 24.5808L86.3818 27.3266L86.4472 28.9936V31.0529L88.3431 31.3471V33.5044H79.3541V31.3471L81.1519 31.0529V9.90424Z" fill="white"/>
</svg>
